# xmcd CD database file
#
# Track frame offsets:
#	182
#	21905
#	37957
#	57925
#	73655
#	96102
#	121997
#	135702
#	156915
#	179702
#	200355
#	223610
#	243935
#	262280
#	282355
#	303647
#
# Disc length: 4337 seconds
#
# Revision: 0
# Processed by: cddbd v1.5.2PL0 Copyright (c) Steve Scherf et al.
# Submitted via: CDex 1.51
#
DISCID=f610ef10
DTITLE=The Gino Marinello Orchestra - Romantic Jazz volume 1
DYEAR=1900
DGENRE=Jazz
TTITLE0=Masquerade
TTITLE1=Ca C'est L'amour
TTITLE2=Satin Doll
TTITLE3=The Gentle Whip
TTITLE4=I Remember Clifford
TTITLE5=My Funny Valentine
TTITLE6=Slide on by
TTITLE7=As time goes by
TTITLE8=Silk Stockings
TTITLE9=The Same Love
TTITLE10=Cry me a river
TTITLE11=My heart belongs to daddy
TTITLE12=Let's Boogie Baby
TTITLE13=Love is here to stay
TTITLE14=Misty
TTITLE15=Lullaby of Birdland
EXTD=
EXTT0=
EXTT1=
EXTT2=
EXTT3=
EXTT4=
EXTT5=
EXTT6=
EXTT7=
EXTT8=
EXTT9=
EXTT10=
EXTT11=
EXTT12=
EXTT13=
EXTT14=
EXTT15=
PLAYORDER=
